<svg width="29" height="28" viewBox="0 0 29 28" fill="none" xmlns="http://www.w3.org/2000/svg">
<path d="M21.5238 14.3857L20.1005 12.9623C19.7621 12.6707 19.5638 12.239 19.5521 11.7607C19.5288 11.2357 19.7388 10.7107 20.1238 10.3257L21.5238 8.92565C22.7371 7.71232 23.1921 6.54565 22.8071 5.62398C22.4338 4.71398 21.2788 4.21232 19.5755 4.21232H7.38379V3.20898C7.38379 2.73065 6.98712 2.33398 6.50879 2.33398C6.03046 2.33398 5.63379 2.73065 5.63379 3.20898V24.7923C5.63379 25.2707 6.03046 25.6673 6.50879 25.6673C6.98712 25.6673 7.38379 25.2707 7.38379 24.7923V19.099H19.5755C21.2555 19.099 22.3871 18.5857 22.7721 17.664C23.1571 16.7423 22.7138 15.5873 21.5238 14.3857Z" fill="#141414"/>
</svg>
