<svg width="184" height="110" viewBox="0 0 184 110" fill="none" xmlns="http://www.w3.org/2000/svg">
<path d="M147.378 60.9051L116.21 -2.7438C96.2346 -43.5348 47.5043 -60.1454 7.36772 -39.8445L6.30547 -39.3072C-33.8311 -19.0064 -50.1752 30.5184 -30.2 71.3094L0.968569 134.958C20.9438 175.749 69.674 192.36 109.811 172.059L110.873 171.522C151.009 151.221 167.354 101.696 147.378 60.9051Z" fill="#B1E6F3"/>
<path d="M119.041 55.0076L87.872 -8.64133C67.8968 -49.4324 19.1666 -66.0429 -20.97 -45.742L-22.0323 -45.2048C-62.1689 -24.9039 -78.513 24.6209 -58.5378 65.4119L-27.3692 129.061C-7.394 169.852 41.3362 186.462 81.4728 166.162L82.5351 165.624C122.672 145.323 139.016 95.7986 119.041 55.0076Z" fill="#0DCAF0"/>
</svg>
