<svg width="184" height="112" viewBox="0 0 184 112" fill="none" xmlns="http://www.w3.org/2000/svg">
<path d="M147.378 61.9588L116.21 -2.26876C96.2346 -43.4306 47.5043 -60.1922 7.36771 -39.7067L6.30547 -39.1646C-33.8311 -18.6792 -50.1752 31.2958 -30.2 72.4577L0.968568 136.685C20.9437 177.847 69.674 194.609 109.811 174.123L110.873 173.581C151.009 153.096 167.354 103.121 147.378 61.9588Z" fill="#F3DBE7"/>
<path d="M119.041 56.0077L87.872 -8.2199C67.8968 -49.3817 19.1666 -66.1433 -20.97 -45.6579L-22.0323 -45.1157C-62.1689 -24.6303 -78.513 25.3447 -58.5378 66.5065L-27.3692 130.734C-7.39401 171.896 41.3362 188.657 81.4728 168.172L82.5351 167.63C122.672 147.144 139.016 97.1695 119.041 56.0077Z" fill="#FD3995"/>
</svg>
