<svg width="184" height="109" viewBox="0 0 184 109" fill="none" xmlns="http://www.w3.org/2000/svg">
<path d="M147.378 60.2977L116.21 -2.19393C96.2346 -42.2433 47.5043 -58.5518 7.36771 -38.6201L6.30546 -38.0926C-33.8311 -18.1608 -50.1752 30.4635 -30.2 70.5129L0.968553 133.005C20.9437 173.054 69.674 189.362 109.811 169.431L110.873 168.903C151.009 148.971 167.354 100.347 147.378 60.2977Z" fill="#F0E0B3"/>
<path d="M119.041 54.5075L87.872 -7.98422C67.8968 -48.0336 19.1666 -64.3421 -20.97 -44.4104L-22.0323 -43.8829C-62.1689 -23.9511 -78.513 24.6732 -58.5378 64.7226L-27.3692 127.214C-7.39402 167.264 41.3362 183.572 81.4728 163.64L82.5351 163.113C122.672 143.181 139.016 94.5568 119.041 54.5075Z" fill="#FFC107"/>
</svg>
