<svg width="184" height="110" viewBox="0 0 184 110" fill="none" xmlns="http://www.w3.org/2000/svg">
<path d="M147.378 60.9051L116.21 -2.74381C96.2346 -43.5348 47.5043 -60.1454 7.36772 -39.8445L6.30547 -39.3072C-33.8311 -19.0064 -50.1752 30.5184 -30.2 71.3094L0.968577 134.958C20.9438 175.749 69.674 192.36 109.811 172.059L110.873 171.522C151.009 151.221 167.354 101.696 147.378 60.9051Z" fill="#BFDABA"/>
<path d="M129.998 73.0967L98.8297 9.44772C78.8546 -31.3433 30.1243 -47.9538 -10.0123 -27.653L-11.0745 -27.1157C-51.2111 -6.81485 -67.5552 42.7099 -47.58 83.5009L-16.4114 147.15C3.56376 187.941 52.294 204.551 92.4306 184.251L93.4928 183.713C133.629 163.412 149.974 113.888 129.998 73.0967Z" fill="#03C95A"/>
</svg>
