<svg width="29" height="28" viewBox="0 0 29 28" fill="none" xmlns="http://www.w3.org/2000/svg">
<path d="M22.375 9.33398V11.784C21.8617 11.714 21.2783 11.679 20.625 11.6673V9.33398C20.625 5.65898 19.5867 3.20898 14.5 3.20898C9.41333 3.20898 8.375 5.65898 8.375 9.33398V11.6673C7.72167 11.679 7.13833 11.714 6.625 11.784V9.33398C6.625 5.95065 7.44167 1.45898 14.5 1.45898C21.5583 1.45898 22.375 5.95065 22.375 9.33398Z" fill="#141414"/>
<path d="M22.3757 11.7827C21.8623 11.7127 21.279 11.6777 20.6257 11.666H8.37565C7.72232 11.6777 7.13898 11.7127 6.62565 11.7827C3.65065 12.1443 2.83398 13.6027 2.83398 17.4993V19.8327C2.83398 24.4993 4.00065 25.666 8.66732 25.666H20.334C25.0007 25.666 26.1673 24.4993 26.1673 19.8327V17.4993C26.1673 13.6027 25.3507 12.1443 22.3757 11.7827ZM10.6623 19.4943C10.4407 19.7043 10.1373 19.8327 9.83398 19.8327C9.68232 19.8327 9.53065 19.7977 9.39065 19.7393C9.23898 19.681 9.12232 19.5993 9.00565 19.4943C8.79565 19.2727 8.66732 18.9693 8.66732 18.666C8.66732 18.5143 8.70232 18.3627 8.76065 18.2227C8.81898 18.0827 8.90065 17.9543 9.00565 17.8377C9.12232 17.7327 9.23898 17.651 9.39065 17.5927C9.82232 17.406 10.3357 17.511 10.6623 17.8377C10.7673 17.9543 10.849 18.0827 10.9073 18.2227C10.9657 18.3627 11.0007 18.5143 11.0007 18.666C11.0007 18.9693 10.8723 19.2727 10.6623 19.4943ZM15.574 19.1093C15.5157 19.2493 15.434 19.3777 15.329 19.4943C15.1073 19.7043 14.804 19.8327 14.5007 19.8327C14.1857 19.8327 13.894 19.7043 13.6723 19.4943C13.5673 19.3777 13.4857 19.2493 13.4273 19.1093C13.369 18.9693 13.334 18.8177 13.334 18.666C13.334 18.351 13.4623 18.0593 13.6723 17.8377C14.104 17.406 14.8857 17.406 15.329 17.8377C15.539 18.0593 15.6673 18.351 15.6673 18.666C15.6673 18.8177 15.6323 18.9693 15.574 19.1093ZM19.9956 19.4943C19.774 19.7043 19.4706 19.8327 19.1673 19.8327C18.864 19.8327 18.5607 19.7043 18.339 19.4943C18.129 19.2727 18.0007 18.981 18.0007 18.666C18.0007 18.351 18.129 18.0593 18.339 17.8377C18.7823 17.406 19.564 17.406 19.9956 17.8377C20.0423 17.896 20.089 17.9543 20.1357 18.0243C20.1823 18.0827 20.2173 18.1527 20.2407 18.2227C20.2757 18.2927 20.299 18.3627 20.3106 18.4327C20.3223 18.5143 20.334 18.596 20.334 18.666C20.334 18.9693 20.2057 19.2727 19.9956 19.4943Z" fill="#141414"/>
</svg>
