<svg width="219" height="177" viewBox="0 0 219 177" fill="none" xmlns="http://www.w3.org/2000/svg">
<g clip-path="url(#clip0_18135_34288)">
<path d="M64.3984 166.798C65.2305 167.585 66.252 168.146 67.3646 168.426C68.4773 168.706 69.6435 168.696 70.751 168.396C73.5895 167.593 75.5158 165.041 77.2256 162.644L82.2847 155.557L78.0211 156.336C74.9548 156.896 71.8128 157.484 69.1425 159.088C66.4723 160.691 64.3335 163.553 64.5026 166.656" fill="#E6E6E6"/>
<path d="M60.4352 176.346C61.1829 173.805 61.9349 171.229 63.2551 168.913C64.4276 166.857 66.0297 165.052 68.1432 163.93C69.2643 163.336 70.4807 162.942 71.7378 162.765C72.0656 162.719 72.119 163.227 71.7928 163.273C69.6163 163.583 67.5949 164.574 66.0198 166.103C64.2739 167.805 63.1286 170 62.2819 172.259C61.7693 173.625 61.3556 175.025 60.944 176.424C60.9317 176.49 60.8946 176.549 60.8402 176.589C60.7857 176.629 60.7181 176.646 60.6511 176.638C60.5839 176.627 60.5237 176.591 60.4835 176.536C60.4433 176.481 60.4264 176.413 60.4364 176.346L60.4352 176.346Z" fill="#F2F2F2"/>
<path d="M142.767 74.007C143.253 73.8902 143.759 73.8811 144.249 73.9803C144.739 74.0794 145.201 74.2844 145.602 74.5808C146.004 74.8771 146.336 75.2577 146.574 75.6957C146.812 76.1336 146.951 76.6183 146.981 77.1156L158.678 80.3928L153.906 84.5126L143.53 80.7689C142.688 80.7637 141.878 80.451 141.252 79.8901C140.626 79.3291 140.229 78.5589 140.135 77.7254C140.041 76.8919 140.257 76.053 140.742 75.3677C141.227 74.6824 141.948 74.1982 142.767 74.007Z" fill="#C2C2C2"/>
<path d="M172.827 173.271L169.417 173.271L167.795 160.164L172.827 160.164L172.827 173.271Z" fill="#F2F6FA"/>
<path d="M173.695 176.566L162.701 176.565V176.427C162.701 175.296 163.152 174.211 163.955 173.411C164.757 172.612 165.845 172.162 166.98 172.162L173.695 172.162L173.695 176.566Z" fill="#2F2E41"/>
<path d="M192.805 173.271L189.396 173.271L187.773 160.164L192.805 160.164L192.805 173.271Z" fill="#F2F6FA"/>
<path d="M193.673 176.566L182.68 176.565V176.427C182.68 175.296 183.131 174.211 183.933 173.411C184.736 172.611 185.824 172.162 186.959 172.162L193.674 172.162L193.673 176.566Z" fill="#2F2E41"/>
<path d="M170.04 98.0443L165.018 132.716L166.269 169.245L173.811 169.844L176.169 137.084L182.173 118.817L185.702 144.856L185.847 169.245L193.635 169.844L196.351 118.569L194.353 96.2695L170.04 98.0443Z" fill="#2F2E41"/>
<path d="M184.566 51.6243C188.954 51.6243 192.512 48.0791 192.512 43.7057C192.512 39.3324 188.954 35.7871 184.566 35.7871C180.178 35.7871 176.621 39.3324 176.621 43.7057C176.621 48.0791 180.178 51.6243 184.566 51.6243Z" fill="#C2C2C2"/>
<path d="M179.67 55.93L170.898 99.9709C170.898 99.9709 185.666 104.195 192.136 100.296C198.605 96.3958 195.706 84.3571 195.706 84.3571L194.521 63.8724L192.332 58.6922L190.474 54.416L179.67 55.93Z" fill="#CBCBCB"/>
<path d="M177.103 87.1926L180.133 55.0762L177.71 56.8394L169.237 59.5818L168.657 82.1929L162.73 111.927C162.73 111.927 166.967 120.166 172.217 106.536L177.103 87.1926Z" fill="#2F2E41"/>
<path d="M173.315 62.9639L169.237 59.582L160.073 79.4229L149.846 77.1903L149.363 83.2097L164.18 89.0537L174.277 75.0442L173.315 62.9639Z" fill="#2F2E41"/>
<path d="M189.176 80.1618L190.318 54.0234L194.52 57.267L202.026 59.3519L200.925 80.1618L202.509 112.452L194.64 114.936L192.431 94.5605L189.176 80.1618Z" fill="#2F2E41"/>
<path d="M189.681 101.203C189.769 100.713 189.964 100.248 190.252 99.8403C190.54 99.4331 190.914 99.0937 191.347 98.8462C191.781 98.5986 192.264 98.4488 192.762 98.4074C193.26 98.3659 193.761 98.4339 194.23 98.6064L201.942 89.248L203.809 95.2594L196.2 103.225C195.857 103.991 195.244 104.604 194.477 104.95C193.71 105.296 192.843 105.349 192.039 105.1C191.236 104.851 190.552 104.316 190.117 103.598C189.682 102.88 189.527 102.028 189.681 101.203Z" fill="#F7F7F7"/>
<path d="M197.002 62.255L202.027 59.3535L214.671 84.2385L202.344 101.299L195.312 95.6959L203.85 84.5997L196.069 72.6814L197.002 62.255Z" fill="#2F2E41"/>
<path d="M192.038 37.3745L192.423 36.6018L190.485 35.6421C190.485 35.6421 188.347 32.1749 184.478 33.1492C180.609 34.1236 178.868 34.7067 178.868 34.7067L176.935 35.6762L177.905 36.6384L176.165 37.2215L177.328 37.7974L175.975 38.5724L176.703 42.5458C176.703 42.5458 177.913 39.5322 180.239 40.6838C182.564 41.8355 186.818 40.0885 186.818 40.0885L190.514 47.2173C190.514 47.2173 191.277 44.7183 192.636 45.3846C192.636 45.3846 196.109 39.8722 192.038 37.3745Z" fill="#2F2E41"/>
<path d="M143.777 48.9922H143.726L114.589 61.3923L74.7225 78.3584C74.5667 78.4238 74.3995 78.4578 74.2305 78.4587C74.0615 78.4596 73.894 78.4272 73.7376 78.3635L32.6074 61.3569L2.75394 49.0124L2.70834 48.9922H2.65752C2.18648 48.9927 1.73489 49.1794 1.40181 49.5114C1.06874 49.8434 0.881384 50.2934 0.880859 50.7629V127.663C0.881385 128.133 1.06874 128.583 1.40181 128.915C1.73489 129.247 2.18648 129.433 2.65752 129.434H143.777C144.248 129.433 144.7 129.247 145.033 128.915C145.366 128.583 145.553 128.133 145.554 127.663V50.7629C145.553 50.2934 145.366 49.8434 145.033 49.5114C144.7 49.1794 144.248 48.9927 143.777 48.9922Z" fill="white"/>
<path d="M143.904 49.4981C143.852 49.4981 143.802 49.4823 143.759 49.4528L73.5651 0.731575C73.3515 0.583994 73.0977 0.505124 72.8378 0.505565C72.5778 0.506007 72.3243 0.585737 72.1112 0.734043L2.4228 49.4523C2.36768 49.4907 2.2995 49.5057 2.23325 49.4941C2.167 49.4825 2.10809 49.4451 2.06947 49.3902C2.03084 49.3353 2.01565 49.2674 2.02723 49.2014C2.03882 49.1353 2.07623 49.0766 2.13125 49.038L71.8197 0.319787C72.1181 0.112194 72.4731 0.000598399 72.837 2.39979e-06C73.2009 -0.0005936 73.5562 0.109838 73.8553 0.316452L144.049 49.0375C144.094 49.0683 144.127 49.1124 144.144 49.1634C144.162 49.2144 144.162 49.2696 144.146 49.3209C144.13 49.3723 144.098 49.4172 144.054 49.4491C144.011 49.4809 143.958 49.4981 143.904 49.4981Z" fill="#3F3D56"/>
<path d="M6.4043 51.2243L72.906 2.10352L139.913 54.7194L76.3323 92.284L41.814 84.4424L6.4043 51.2243Z" fill="#E6E6E6"/>
<path d="M44.7287 115.487H11.8752C11.6735 115.488 11.4736 115.449 11.287 115.372C11.1004 115.296 10.9308 115.183 10.7878 115.042C10.6449 114.9 10.5314 114.731 10.4538 114.545C10.3763 114.36 10.3362 114.161 10.3359 113.96C10.3356 113.759 10.3751 113.56 10.4521 113.374C10.5291 113.188 10.6421 113.019 10.7846 112.877C10.9272 112.734 11.0965 112.621 11.2828 112.544C11.4692 112.467 11.6689 112.428 11.8707 112.428H44.7287C44.9305 112.427 45.1303 112.466 45.3169 112.543C45.5035 112.619 45.6731 112.732 45.8161 112.873C45.959 113.015 46.0725 113.184 46.1501 113.37C46.2276 113.555 46.2677 113.754 46.268 113.955C46.2683 114.156 46.2288 114.355 46.1518 114.541C46.0748 114.727 45.9618 114.896 45.8193 115.038C45.6767 115.181 45.5075 115.293 45.3211 115.371C45.1348 115.448 44.935 115.487 44.7333 115.487H44.7287Z" fill="#141414"/>
<path d="M23.6623 108.911H11.8752C11.6735 108.912 11.4736 108.873 11.287 108.796C11.1004 108.72 10.9308 108.607 10.7878 108.465C10.6449 108.323 10.5314 108.155 10.4538 107.969C10.3763 107.784 10.3362 107.585 10.3359 107.384C10.3356 107.182 10.3751 106.983 10.4521 106.798C10.5291 106.612 10.6421 106.443 10.7846 106.3C10.9272 106.158 11.0965 106.045 11.2828 105.968C11.4692 105.891 11.6689 105.852 11.8707 105.852H23.6623C24.069 105.852 24.4591 106.012 24.747 106.299C25.0348 106.585 25.1968 106.974 25.1974 107.379C25.198 107.784 25.0372 108.173 24.7502 108.461C24.4632 108.748 24.0736 108.91 23.6669 108.911H23.6623Z" fill="#141414"/>
<path d="M73.8415 78.5847C73.5918 78.585 73.3445 78.5367 73.1133 78.4425L32.0996 61.4818V8.39182C32.1002 7.92237 32.2875 7.4723 32.6206 7.14034C32.9537 6.80838 33.4052 6.62165 33.8763 6.62109H112.558C113.029 6.62165 113.481 6.80838 113.814 7.14034C114.147 7.4723 114.334 7.92237 114.335 8.39182V61.5188L114.258 61.5517L74.5918 78.4342C74.3543 78.5337 74.0992 78.5849 73.8415 78.5847Z" fill="#141414"/>
<path d="M143.396 48.5H143.345L114.208 60.9001L74.3416 77.8662C74.1858 77.9316 74.0187 77.9656 73.8497 77.9665C73.6807 77.9674 73.5132 77.935 73.3567 77.8713L32.2265 60.8647L2.37311 48.5202L2.32751 48.5H2.27666C1.80562 48.5005 1.35403 48.6873 1.02095 49.0192C0.687876 49.3512 0.500524 49.8013 0.5 50.2707V127.171C0.500524 127.64 0.687875 128.09 1.02095 128.422C1.35403 128.754 1.80562 128.941 2.27666 128.942H143.396C143.867 128.941 144.319 128.754 144.652 128.422C144.985 128.09 145.172 127.64 145.173 127.171V50.2707C145.172 49.8013 144.985 49.3512 144.652 49.0192C144.319 48.6873 143.867 48.5005 143.396 48.5ZM144.665 127.171C144.665 127.506 144.531 127.828 144.293 128.065C144.055 128.302 143.733 128.436 143.396 128.436H2.27666C1.94013 128.436 1.61741 128.302 1.37945 128.065C1.14148 127.828 1.00773 127.506 1.00759 127.171V50.2707C1.00805 49.9436 1.13535 49.6294 1.36288 49.3937C1.5904 49.158 1.90053 49.019 2.22845 49.0059L32.2265 61.4111L73.1614 78.3393C73.6045 78.519 74.101 78.5162 74.5421 78.3317L114.208 61.4491L143.447 49.0059C143.774 49.02 144.084 49.1593 144.311 49.3949C144.537 49.6305 144.665 49.9442 144.665 50.2707L144.665 127.171Z" fill="#3F3D56"/>
<path d="M67.4561 26.4673H39.5367C38.9988 26.4664 38.4833 26.2527 38.1032 25.8733C37.7232 25.4939 37.5098 24.9797 37.5098 24.4436C37.5098 23.9075 37.7232 23.3933 38.1032 23.0139C38.4833 22.6345 38.9988 22.4209 39.5367 22.4199H67.4561C67.994 22.4209 68.5095 22.6345 68.8895 23.0139C69.2696 23.3933 69.483 23.9075 69.483 24.4436C69.483 24.9797 69.2696 25.4939 68.8895 25.8733C68.5095 26.2527 67.994 26.4664 67.4561 26.4673Z" fill="white"/>
<path d="M52.9884 17.8657H39.5364C38.9978 17.8657 38.4814 17.6525 38.1006 17.273C37.7198 16.8935 37.5059 16.3788 37.5059 15.842C37.5059 15.3053 37.7198 14.7906 38.1006 14.4111C38.4814 14.0316 38.9978 13.8184 39.5364 13.8184H52.9884C53.5269 13.8184 54.0434 14.0316 54.4242 14.4111C54.805 14.7906 55.0189 15.3053 55.0189 15.842C55.0189 16.3788 54.805 16.8935 54.4242 17.273C54.0434 17.6525 53.5269 17.8657 52.9884 17.8657Z" fill="white"/>
<path d="M94.0987 46.7036H51.4582C50.9197 46.7036 50.4032 46.4904 50.0224 46.1109C49.6417 45.7314 49.4277 45.2166 49.4277 44.6799C49.4277 44.1432 49.6417 43.6285 50.0224 43.249C50.4032 42.8695 50.9197 42.6562 51.4582 42.6562H94.0987C94.6372 42.6562 95.1537 42.8695 95.5345 43.249C95.9153 43.6285 96.1292 44.1432 96.1292 44.6799C96.1292 45.2166 95.9153 45.7314 95.5345 46.1109C95.1537 46.4904 94.6372 46.7036 94.0987 46.7036Z" fill="white"/>
<path d="M94.0983 56.063H51.4579C51.1909 56.0635 50.9265 56.0115 50.6798 55.91C50.433 55.8085 50.2087 55.6595 50.0198 55.4715C49.8309 55.2836 49.681 55.0603 49.5787 54.8146C49.4765 54.5688 49.4238 54.3054 49.4238 54.0393C49.4238 53.7733 49.4765 53.5098 49.5787 53.2641C49.681 53.0183 49.8309 52.7951 50.0198 52.6071C50.2087 52.4191 50.433 52.2702 50.6798 52.1687C50.9265 52.0672 51.1909 52.0152 51.4579 52.0156H94.0983C94.3653 52.0152 94.6297 52.0672 94.8765 52.1687C95.1232 52.2702 95.3475 52.4191 95.5364 52.6071C95.7253 52.7951 95.8752 53.0183 95.9775 53.2641C96.0797 53.5098 96.1324 53.7733 96.1324 54.0393C96.1324 54.3054 96.0797 54.5688 95.9775 54.8146C95.8752 55.0603 95.7253 55.2836 95.5364 55.4715C95.3475 55.6595 95.1232 55.8085 94.8765 55.91C94.6297 56.0115 94.3653 56.0635 94.0983 56.063Z" fill="white"/>
<path d="M218.191 176.885H136.73C136.648 176.885 136.569 176.852 136.511 176.795C136.453 176.737 136.42 176.658 136.42 176.576C136.42 176.494 136.453 176.416 136.511 176.358C136.569 176.3 136.648 176.268 136.73 176.268H218.191C218.273 176.268 218.352 176.3 218.41 176.358C218.468 176.416 218.501 176.494 218.501 176.576C218.501 176.658 218.468 176.737 218.41 176.795C218.352 176.852 218.273 176.885 218.191 176.885Z" fill="#CBCBCB"/>
<path d="M76.0185 176.885H45.9738C45.8917 176.885 45.8129 176.852 45.7548 176.795C45.6967 176.737 45.6641 176.658 45.6641 176.576C45.6641 176.494 45.6967 176.416 45.7548 176.358C45.8129 176.3 45.8917 176.268 45.9738 176.268H76.0185C76.1007 176.268 76.1795 176.3 76.2376 176.358C76.2956 176.416 76.3283 176.494 76.3283 176.576C76.3283 176.658 76.2956 176.737 76.2376 176.795C76.1795 176.852 76.1007 176.885 76.0185 176.885Z" fill="#CBCBCB"/>
<path d="M57.0223 167.342C58.1696 167.315 59.2907 166.995 60.2777 166.412C61.2647 165.828 62.0843 165.001 62.6576 164.01C64.102 161.446 63.662 158.283 63.1785 155.382L61.7509 146.801L59.2792 150.35C57.5014 152.902 55.6899 155.527 54.931 158.541C54.1722 161.554 54.6809 165.087 56.9957 167.168" fill="#E6E6E6"/>
<path d="M60.9681 176.895C59.7004 174.568 58.4112 172.213 57.7087 169.643C57.0849 167.361 56.9441 164.956 57.6489 162.675C58.0236 161.466 58.607 160.331 59.3729 159.322C59.5727 159.059 59.9704 159.382 59.7717 159.644C58.4478 161.394 57.7155 163.517 57.6804 165.708C57.6471 168.142 58.3882 170.503 59.3862 172.7C59.9892 174.029 60.686 175.312 61.3841 176.593C61.4223 176.649 61.4377 176.717 61.4272 176.783C61.4168 176.85 61.3812 176.91 61.3279 176.951C61.2727 176.99 61.2041 177.007 61.1369 176.996C61.0697 176.986 61.0094 176.949 60.9691 176.895L60.9681 176.895Z" fill="#F2F2F2"/>
</g>
<defs>
<clipPath id="clip0_18135_34288">
<rect width="218" height="177" fill="white" transform="translate(0.5)"/>
</clipPath>
</defs>
</svg>
